<?xml version="1.0" encoding="UTF-8"?>
<svg version="1.1" xmlns="http://www.w3.org/2000/svg" width="32" height="32">
<path d="M0 0 C10.56 0 21.12 0 32 0 C32 10.56 32 21.12 32 32 C21.44 32 10.88 32 0 32 C0 21.44 0 10.88 0 0 Z " fill="#CE9790" transform="translate(0,0)"/>
<path d="M0 0 C2.31 0.33 4.62 0.66 7 1 C7 2.32 7 3.64 7 5 C7.93283296 7.20067421 7.93283296 7.20067421 9 9 C9.66 9 10.32 9 11 9 C11 10.32 11 11.64 11 13 C10.34 13 9.68 13 9 13 C9.268125 13.86625 9.53625 14.7325 9.8125 15.625 C10 19 10 19 7.875 22.25 C3.84789208 26.10201627 1.02246923 27.08233833 -4.4375 27.375 C-10.28658943 27.22925857 -13.38858905 24.61141095 -17.4375 20.5625 C-19 18 -19 18 -19.25 15.375 C-17.48294543 12.01759632 -15.22123489 11.59585855 -11.71484375 10.48046875 C-11.14894531 10.32191406 -10.58304688 10.16335938 -10 10 C-10 10.99 -10 11.98 -10 13 C-9.34 12.01 -8.68 11.02 -8 10 C-7.01 10 -6.02 10 -5 10 C-4.34 8.68 -3.68 7.36 -3 6 C-2.34 6.33 -1.68 6.66 -1 7 C-1 7.66 -1 8.32 -1 9 C-0.01 9 0.98 9 2 9 C2 9.99 2 10.98 2 12 C3.32 12.33 4.64 12.66 6 13 C4.37926666 7.8371679 4.37926666 7.8371679 2 3 C1.34 2.67 0.68 2.34 0 2 C0 1.34 0 0.68 0 0 Z " fill="#6F4F5D" transform="translate(20,5)"/>
<path d="M0 0 C3.96 0 7.92 0 12 0 C10 1.33333333 8 2.66666667 6 4 C6.66 4.33 7.32 4.66 8 5 C8 5.99 8 6.98 8 8 C9.32 8.33 10.64 8.66 12 9 C12 9.66 12 10.32 12 11 C10.68 11 9.36 11 8 11 C7.67 12.65 7.34 14.3 7 16 C6.34 16 5.68 16 5 16 C5 16.66 5 17.32 5 18 C4.01 18 3.02 18 2 18 C2.1150018 22.61521081 2.1150018 22.61521081 4.33203125 26.5078125 C5.84008747 27.7333375 7.41872823 28.87052017 9 30 C9.66 30.66 10.32 31.32 11 32 C7.37 32 3.74 32 0 32 C0 21.44 0 10.88 0 0 Z " fill="#B18D7D" transform="translate(0,0)"/>
<path d="M0 0 C5.61 0 11.22 0 17 0 C17 10.56 17 21.12 17 32 C13.04 32 9.08 32 5 32 C6.875 30.75 8.75 29.5 10.625 28.25 C13.51941101 25.50792641 13.74514629 23.90775683 14 20 C14 19.34 14 18.68 14 18 C14.66 18 15.32 18 16 18 C16 16.68 16 15.36 16 14 C15.34 14 14.68 14 14 14 C14 13.34 14 12.68 14 12 C13.01 11.67 12.02 11.34 11 11 C11.33 9.68 11.66 8.36 12 7 C10.88625 6.855625 9.7725 6.71125 8.625 6.5625 C5 6 5 6 3 5 C2.01 3.35 1.02 1.7 0 0 Z " fill="#837574" transform="translate(15,0)"/>
<path d="M0 0 C0.99 0.33 1.98 0.66 3 1 C3 1.66 3 2.32 3 3 C3.99 3 4.98 3 6 3 C4.92289822 7.30840713 3.96052484 10.63576723 1 14 C0.34 13.67 -0.32 13.34 -1 13 C-1 13.66 -1 14.32 -1 15 C-2.65 14.67 -4.3 14.34 -6 14 C-6 13.34 -6 12.68 -6 12 C-6.66 12 -7.32 12 -8 12 C-8 12.66 -8 13.32 -8 14 C-9.98 14.99 -9.98 14.99 -12 16 C-14.07360512 13.76050647 -14.96190921 12.52057408 -15.1875 9.4375 C-13.7448631 6.47629794 -12.93666906 6.31484724 -9.9375 5.1875 C-8.63111312 4.77193581 -7.32005558 4.36985612 -6 4 C-6 4.99 -6 5.98 -6 7 C-5.34 6.01 -4.68 5.02 -4 4 C-3.01 4 -2.02 4 -1 4 C-0.67 2.68 -0.34 1.36 0 0 Z " fill="#9A9182" transform="translate(16,11)"/>
<path d="M0 0 C0.66 0 1.32 0 2 0 C2.33 0.66 2.66 1.32 3 2 C3.66 1.67 4.32 1.34 5 1 C5.66 1.99 6.32 2.98 7 4 C7.66 4.33 8.32 4.66 9 5 C8.67 5.33 8.34 5.66 8 6 C9.98 6 11.96 6 14 6 C14 5.34 14 4.68 14 4 C14.99 3.67 15.98 3.34 17 3 C17.66 2.01 18.32 1.02 19 0 C19.66 0 20.32 0 21 0 C20.66466224 3.12981912 19.99933599 4.00061159 17.625 6.1875 C12.99970195 9.38115818 8.46868713 9.7161376 3 9 C0.64027116 7.90167093 -0.96640459 6.66859111 -3 5 C-2.67 4.01 -2.34 3.02 -2 2 C-1.34 2 -0.68 2 0 2 C0 1.34 0 0.68 0 0 Z " fill="#5C6A5C" transform="translate(8,23)"/>
<path d="M0 0 C2.31 0.33 4.62 0.66 7 1 C7 2.32 7 3.64 7 5 C7.93283296 7.20067421 7.93283296 7.20067421 9 9 C9.66 9 10.32 9 11 9 C11 10.32 11 11.64 11 13 C10.34 13 9.68 13 9 13 C9.33 14.98 9.66 16.96 10 19 C9.443125 18.360625 8.88625 17.72125 8.3125 17.0625 C5.77933439 14.80319013 4.31658576 14.36850953 1 14 C1 13.01 1 12.02 1 11 C3.475 11.99 3.475 11.99 6 13 C4.37926666 7.8371679 4.37926666 7.8371679 2 3 C1.34 2.67 0.68 2.34 0 2 C0 1.34 0 0.68 0 0 Z " fill="#63544C" transform="translate(20,5)"/>
<path d="M0 0 C0.99 0.33 1.98 0.66 3 1 C3 1.66 3 2.32 3 3 C3.99 3 4.98 3 6 3 C4.92289822 7.30840713 3.96052484 10.63576723 1 14 C-0.37562854 12.71034824 -1.70766393 11.37310707 -3 10 C-3 9.34 -3 8.68 -3 8 C-1.68 8 -0.36 8 1 8 C1 7.34 1 6.68 1 6 C0.01 6 -0.98 6 -2 6 C-1.34 4.02 -0.68 2.04 0 0 Z " fill="#A6A78A" transform="translate(16,11)"/>
<path d="M0 0 C3.96 0 7.92 0 12 0 C11.01 0.66 10.02 1.32 9 2 C4.0201564 5.55640857 4.0201564 5.55640857 2 11 C1.01 11.495 1.01 11.495 0 12 C0 8.04 0 4.08 0 0 Z " fill="#FAF9FA" transform="translate(0,0)"/>
<path d="M0 0 C0.33 0 0.66 0 1 0 C1 3.96 1 7.92 1 12 C-2.96 12 -6.92 12 -11 12 C-10.01 11.34 -9.02 10.68 -8 10 C-3.9060423 7.13422961 -1.98170114 4.58920264 0 0 Z " fill="#F9F9F9" transform="translate(31,20)"/>
<path d="M0 0 C0.33 0 0.66 0 1 0 C1.20625 1.051875 1.4125 2.10375 1.625 3.1875 C2.8774341 7.67085106 5.30483168 9.30560643 9 12 C9.66 12.66 10.32 13.32 11 14 C7.37 14 3.74 14 0 14 C0 9.38 0 4.76 0 0 Z " fill="#F7F9FA" transform="translate(0,18)"/>
<path d="M0 0 C3.96 0 7.92 0 12 0 C12 3.63 12 7.26 12 11 C11.443125 10.2575 10.88625 9.515 10.3125 8.75 C7.27080802 5.13285278 3.91639631 2.61093087 0 0 Z " fill="#F9FAFA" transform="translate(20,0)"/>
<path d="M0 0 C0.66 0 1.32 0 2 0 C1.66466224 3.12981912 0.99933599 4.00061159 -1.375 6.1875 C-4.93568432 8.64606774 -7.46522673 9.12369237 -11.6875 9.0625 C-12.89986328 9.04896484 -12.89986328 9.04896484 -14.13671875 9.03515625 C-15.05904297 9.01775391 -15.05904297 9.01775391 -16 9 C-16 8.67 -16 8.34 -16 8 C-10.555 7.01 -10.555 7.01 -5 6 C-5 5.34 -5 4.68 -5 4 C-4.01 3.67 -3.02 3.34 -2 3 C-1.34 2.01 -0.68 1.02 0 0 Z " fill="#897983" transform="translate(27,23)"/>
<path d="M0 0 C0.66 0 1.32 0 2 0 C2 0.66 2 1.32 2 2 C2.99 2 3.98 2 5 2 C5 2.66 5 3.32 5 4 C3.68 4 2.36 4 1 4 C1 4.66 1 5.32 1 6 C1.66 6 2.32 6 3 6 C3 6.66 3 7.32 3 8 C2.01 8 1.02 8 0 8 C0 7.34 0 6.68 0 6 C-2.31 6.66 -4.62 7.32 -7 8 C-7.33 6.68 -7.66 5.36 -8 4 C-5.03 4.495 -5.03 4.495 -2 5 C-1.34 3.35 -0.68 1.7 0 0 Z " fill="#7688A8" transform="translate(12,15)"/>
<path d="M0 0 C-0.33 0.66 -0.66 1.32 -1 2 C-2.98 2 -4.96 2 -7 2 C-6.835 2.61875 -6.67 3.2375 -6.5 3.875 C-6 6 -6 6 -6 8 C-7.32 7.67 -8.64 7.34 -10 7 C-9.67 6.01 -9.34 5.02 -9 4 C-9.99 3.67 -10.98 3.34 -12 3 C-7.74687289 -0.37316977 -5.33599971 -1.29794588 0 0 Z " fill="#B7ADBD" transform="translate(17,1)"/>
<path d="M0 0 C1.98 0 3.96 0 6 0 C6.66 1.32 7.32 2.64 8 4 C4.57015811 4.94616328 1.55824425 5 -2 5 C-1.34 3.35 -0.68 1.7 0 0 Z " fill="#4D6B6E" transform="translate(20,19)"/>
<path d="M0 0 C6.15234375 0.5859375 6.15234375 0.5859375 8 1 C8.33 1.66 8.66 2.32 9 3 C8.67 3.66 8.34 4.32 8 5 C5.4375 5.625 5.4375 5.625 3 6 C2.01 4.02 1.02 2.04 0 0 Z " fill="#897952" transform="translate(15,0)"/>
<path d="M0 0 C2.475 0.99 2.475 0.99 5 2 C5.33 4.31 5.66 6.62 6 9 C4.68 8.67 3.36 8.34 2 8 C1.33333333 5.33333333 0.66666667 2.66666667 0 0 Z " fill="#B2AAB1" transform="translate(20,9)"/>
<path d="M0 0 C0 1.65 0 3.3 0 5 C-1.65 5 -3.3 5 -5 5 C-5.33 5.66 -5.66 6.32 -6 7 C-6.99 6.67 -7.98 6.34 -9 6 C-8.67 5.01 -8.34 4.02 -8 3 C-1.77777778 0 -1.77777778 0 0 0 Z " fill="#9E7367" transform="translate(10,15)"/>
<path d="M0 0 C1.32 0.33 2.64 0.66 4 1 C4 2.98 4 4.96 4 7 C3.34 7 2.68 7 2 7 C1.67 6.34 1.34 5.68 1 5 C-0.32 5.33 -1.64 5.66 -3 6 C-3 5.01 -3 4.02 -3 3 C-2.01 3 -1.02 3 0 3 C0 2.01 0 1.02 0 0 Z " fill="#B8CED3" transform="translate(8,11)"/>
<path d="M0 0 C5.75 0.75 5.75 0.75 8 3 C1.25 5.125 1.25 5.125 -1 4 C-0.67 2.68 -0.34 1.36 0 0 Z " fill="#808C9F" transform="translate(14,5)"/>
<path d="M0 0 C1.32 0 2.64 0 4 0 C3.67 1.32 3.34 2.64 3 4 C2.34 4 1.68 4 1 4 C0.67 4.99 0.34 5.98 0 7 C-0.66 6.01 -1.32 5.02 -2 4 C-1.34 2.68 -0.68 1.36 0 0 Z " fill="#AD9F86" transform="translate(4,5)"/>
<path d="M0 0 C2.31 0.33 4.62 0.66 7 1 C7 1.99 7 2.98 7 4 C6.01 4.66 5.02 5.32 4 6 C2.62437146 4.71034824 1.29233607 3.37310707 0 2 C0 1.34 0 0.68 0 0 Z " fill="#8E4E64" transform="translate(20,5)"/>
<path d="M0 0 C1.32 0.33 2.64 0.66 4 1 C3.67 2.65 3.34 4.3 3 6 C0.525 5.01 0.525 5.01 -2 4 C-1.34 2.68 -0.68 1.36 0 0 Z " fill="#645938" transform="translate(22,22)"/>
<path d="M0 0 C1.98 0 3.96 0 6 0 C5.67 1.98 5.34 3.96 5 6 C3.2925002 4.71937515 1.62626404 3.38232443 0 2 C0 1.34 0 0.68 0 0 Z " fill="#BA6E5D" transform="translate(13,19)"/>
<path d="M0 0 C6.64615385 2.33846154 6.64615385 2.33846154 8.4375 5.6875 C8.7159375 6.8321875 8.7159375 6.8321875 9 8 C8.443125 7.360625 7.88625 6.72125 7.3125 6.0625 C4.77933439 3.80319013 3.31658576 3.36850953 0 3 C0 2.01 0 1.02 0 0 Z " fill="#9C4647" transform="translate(21,16)"/>
<path d="M0 0 C0.66 0 1.32 0 2 0 C2.185625 1.2065625 2.185625 1.2065625 2.375 2.4375 C2.58125 3.283125 2.7875 4.12875 3 5 C3.66 5.33 4.32 5.66 5 6 C4.01 6 3.02 6 2 6 C1.67 6.99 1.34 7.98 1 9 C0.67 6.03 0.34 3.06 0 0 Z " fill="#A49EAE" transform="translate(0,12)"/>
<path d="M0 0 C0.99 0.33 1.98 0.66 3 1 C3 1.66 3 2.32 3 3 C3.66 3.33 4.32 3.66 5 4 C4.01 4.99 3.02 5.98 2 7 C2 6.34 2 5.68 2 5 C1.01 4.67 0.02 4.34 -1 4 C-0.67 2.68 -0.34 1.36 0 0 Z " fill="#7B8361" transform="translate(16,11)"/>
<path d="M0 0 C2.0625 0.4375 2.0625 0.4375 4 1 C4 1.99 4 2.98 4 4 C3.01 4.33 2.02 4.66 1 5 C0.34 3.68 -0.32 2.36 -1 1 C-0.67 0.67 -0.34 0.34 0 0 Z " fill="#6D7D7B" transform="translate(6,25)"/>
</svg>
